<svg xmlns="http://www.w3.org/2000/svg" version="1.1" xmlns:xlink="http://www.w3.org/1999/xlink" xmlns:svgjs="http://svgjs.dev/svgjs" width="2000" height="323" viewBox="0 0 2000 323"><g transform="matrix(1,0,0,1,-1.2121212121212466,-0.5141467166063194)"><svg viewBox="0 0 396 64" data-background-color="#ffffff" preserveAspectRatio="xMidYMid meet" height="323" width="2000" xmlns="http://www.w3.org/2000/svg" xmlns:xlink="http://www.w3.org/1999/xlink"><g id="tight-bounds" transform="matrix(1,0,0,1,0.2400000000000091,0.10187427202106392)"><svg viewBox="0 0 395.52 63.79625145595788" height="63.79625145595788" width="395.52"><g><svg viewBox="0 0 488.1161215485729 78.73174259208045" height="63.79625145595788" width="395.52"><g transform="matrix(1,0,0,1,92.59612154857291,10.000189335009427)"><svg viewBox="0 0 395.52 58.7313639220616" height="58.7313639220616" width="395.52"><g id="textblocktransform"><svg viewBox="0 0 395.52 58.7313639220616" height="58.7313639220616" width="395.52" id="textblock"><g><svg viewBox="0 0 395.52 58.7313639220616" height="58.7313639220616" width="395.52"><g transform="matrix(1,0,0,1,0,0)"><svg width="395.52" viewBox="1.5 -36 318.18 47.25" height="58.7313639220616" data-palette-color="url(#b521c4a5-d0ed-4afd-9f4a-9b4910c9eed2)"></svg></g></svg></g></svg></g></svg></g><g><svg viewBox="0 0 78.73105607930829 78.73174259208045" height="78.73174259208045" width="78.73105607930829"><g><svg xmlns="http://www.w3.org/2000/svg" xmlns:xlink="http://www.w3.org/1999/xlink" version="1.1" x="0" y="0" viewBox="5 4.9992152251910404 90 90.00078477480896" enable-background="new 0 0 100 100" xml:space="preserve" height="78.73174259208045" width="78.73105607930829" class="icon-icon-0" data-fill-palette-color="accent" id="icon-0"></svg></g></svg></g></svg></g><defs></defs><mask id="5b9b9dbc-c7e4-4b8c-aab9-5febd3363a50"><g id="SvgjsG4189"><svg viewBox="0 0 395.52 63.79625145595788" height="63.79625145595788" width="395.52"><g><svg viewBox="0 0 488.1161215485729 78.73174259208045" height="63.79625145595788" width="395.52"><g transform="matrix(1,0,0,1,92.59612154857291,10.000189335009427)"><svg viewBox="0 0 395.52 58.7313639220616" height="58.7313639220616" width="395.52"><g id="SvgjsG4188"><svg viewBox="0 0 395.52 58.7313639220616" height="58.7313639220616" width="395.52" id="SvgjsSvg4187"><g><svg viewBox="0 0 395.52 58.7313639220616" height="58.7313639220616" width="395.52"><g transform="matrix(1,0,0,1,0,0)"><svg width="395.52" viewBox="1.5 -36 318.18 47.25" height="58.7313639220616" data-palette-color="url(#b521c4a5-d0ed-4afd-9f4a-9b4910c9eed2)"><path d="M31.15 0.25L21.55 0.25Q12 0.25 6.75-4.33 1.5-8.9 1.5-17.9L1.5-17.9Q1.5-26.85 6.75-31.43 12-36 21.9-36L21.9-36 30.9-36Q40.8-36 46.05-31.43 51.3-26.85 51.3-17.9L51.3-17.9Q51.3-8.9 46.05-4.33 40.8 0.25 31.15 0.25L31.15 0.25ZM30.35-29.5L22.45-29.5Q16.9-29.5 13.8-27.5 10.7-25.5 9.9-21.15L9.9-21.15 42.9-21.15Q42.1-25.5 39-27.5 35.9-29.5 30.35-29.5L30.35-29.5ZM22.6-6.25L22.6-6.25 30.35-6.25Q35.95-6.25 39.03-8.25 42.1-10.25 42.9-14.65L42.9-14.65 9.9-14.65Q10.7-10.25 13.8-8.25 16.9-6.25 22.6-6.25ZM62.8 11.25L55.55 11.25 55.55-25.75 74.05-25.75Q80.75-25.75 84.5-22.45 88.25-19.15 88.25-12.9L88.25-12.9Q88.25-6.6 84.5-3.3 80.75 0 74.05 0L74.05 0 62.8 0 62.8 11.25ZM74.05-20L74.05-20 62.8-20 62.8-5.75 74.05-5.75Q77.3-5.75 79.02-7.53 80.75-9.3 80.75-12.9L80.75-12.9Q80.75-16.45 79.02-18.23 77.3-20 74.05-20ZM118.05 0L107.15 0Q102.8 0 100.75-2.18 98.7-4.35 98.7-7.9L98.7-7.9 98.7-20 91.25-20 91.25-25.75 98.7-25.75 98.7-33.65 105.95-33.65 105.95-25.75 116.65-25.75 116.65-20 105.95-20 105.95-8.8Q105.95-5.75 108.95-5.75L108.95-5.75 118.05-5.75 118.05 0ZM129.04 0L121.79 0 121.79-25.75 129.04-25.75 129.04 0ZM129.09-30L121.74-30 121.74-35.65 129.09-35.65 129.09-30ZM149.09-11.7L133.79-11.7 133.79-17.45 149.09-17.45 149.09-11.7ZM193.94 0.25L171.99 0.25Q162.84 0.25 157.71-4.33 152.59-8.9 152.59-17.9L152.59-17.9Q152.59-26.85 157.81-31.43 163.04-36 172.99-36L172.99-36 191.99-36 191.99-29.5 173.54-29.5Q166.99-29.5 163.86-26.75 160.74-24 160.74-17.9L160.74-17.9Q160.74-12.1 163.49-9.33 166.24-6.55 171.54-6.3L171.54-6.3 171.54-20.2 193.94-20.2 193.94 0.25ZM179.04-13.7L179.04-6.25 185.94-6.25 185.94-13.7 179.04-13.7ZM207.44 0L200.19 0 200.19-35.75 207.44-35.75 207.44 0ZM235.13 0L221.13 0Q216.73 0 214.71-2.2 212.68-4.4 212.68-7.9L212.68-7.9 212.68-25.75 219.93-25.75 219.93-8.75Q219.93-5.75 222.93-5.75L222.93-5.75 233.33-5.75Q236.33-5.75 236.33-8.75L236.33-8.75 236.33-25.75 243.58-25.75 243.58-7.9Q243.58-4.4 241.56-2.2 239.53 0 235.13 0L235.13 0ZM279.28 0.25L262.03 0.25Q255.33 0.25 251.58-3.08 247.83-6.4 247.83-12.85L247.83-12.85Q247.83-19.35 251.58-22.68 255.33-26 262.03-26L262.03-26 278.78-26 278.78-20.25 262.03-20.25Q258.78-20.25 257.06-18.45 255.33-16.65 255.33-12.85L255.33-12.85Q255.33-9.1 257.06-7.3 258.78-5.5 262.03-5.5L262.03-5.5 279.28-5.5 279.28 0.25ZM305.48 0.25L296.23 0.25Q289.53 0.25 285.78-3.08 282.03-6.4 282.03-12.85L282.03-12.85Q282.03-19.35 285.78-22.68 289.53-26 296.23-26L296.23-26 305.48-26Q312.18-26 315.93-22.68 319.68-19.35 319.68-12.85L319.68-12.85Q319.68-6.4 315.93-3.08 312.18 0.25 305.48 0.25L305.48 0.25ZM296.23-5.5L296.23-5.5 305.48-5.5Q308.73-5.5 310.45-7.3 312.18-9.1 312.18-12.85L312.18-12.85Q312.18-16.65 310.45-18.45 308.73-20.25 305.48-20.25L305.48-20.25 296.23-20.25Q292.98-20.25 291.25-18.45 289.53-16.65 289.53-12.85L289.53-12.85Q289.53-9.1 291.25-7.3 292.98-5.5 296.23-5.5Z" opacity="1" transform="matrix(1,0,0,1,0,0)" fill="white" class="wordmark-text-0" id="SvgjsPath4186"></path></svg></g></svg></g></svg></g></svg></g><g><svg viewBox="0 0 78.73105607930829 78.73174259208045" height="78.73174259208045" width="78.73105607930829"><g><svg xmlns="http://www.w3.org/2000/svg" xmlns:xlink="http://www.w3.org/1999/xlink" version="1.1" x="0" y="0" viewBox="5 4.9992152251910404 90 90.00078477480896" enable-background="new 0 0 100 100" xml:space="preserve" height="78.73174259208045" width="78.73105607930829" class="icon-icon-0" data-fill-palette-color="accent" id="SvgjsSvg4185"><g fill="black"><g fill="black"><path d="M50 86.819c9.709 0 17.618-4.473 22.418-10.855 1.309-1.8 3.873-2.182 5.727-0.818 1.8 1.309 2.182 3.873 0.818 5.727C72.691 89.273 62.273 95 50 95c-12.327 0-22.691-5.727-28.909-14.127-1.364-1.855-0.982-4.418 0.818-5.727 1.8-1.364 4.364-0.982 5.727 0.818C32.436 82.4 40.236 86.819 50 86.819z" fill="black"></path><path d="M71.436 60.637h19.473c2.291 0 4.091 1.8 4.091 4.091 0 2.236-1.8 4.091-4.091 4.091H70.891c-3.764 0-6.818-2.836-7.473-6.327v-0.055L62.764 58.4l-1.255 6.655-1.8 9.818c-0.382 1.855-1.364 3.545-2.782 4.691-1.364 1.091-3.055 1.636-4.691 1.636s-3.327-0.545-4.691-1.636c-1.418-1.145-2.4-2.836-2.782-4.691l-1.8-9.818-2.4-12.982-1.855 10.364v0.055c-0.655 3.545-3.655 6.327-7.473 6.327H9.091C6.855 68.819 5 66.964 5 64.728c0-2.291 1.855-4.091 4.091-4.091h21.6l2.4-13.309v-0.055c0.327-1.855 1.364-3.6 2.727-4.691 1.418-1.091 3.109-1.636 4.745-1.636s3.327 0.545 4.691 1.636c1.418 1.091 2.4 2.836 2.727 4.691l3 16.255 1.255 6.6 1.2-6.545 1.855-10.036c0.327-1.909 1.364-3.6 2.727-4.691 1.418-1.145 3.055-1.636 4.745-1.636 1.636 0 3.327 0.491 4.691 1.636 1.418 1.091 2.4 2.782 2.727 4.691V53.6L71.436 60.637z" fill="black"></path><path d="M74.436 50.6l-18-33.545c-1.473-2.673-3.873-3.818-6.436-3.873-2.564 0.055-4.964 1.2-6.382 3.873l-18 33.545c-0.382 0.709-0.709 1.364-0.982 2.018v0.055c-0.818 2.073-3.218 3.109-5.291 2.236-2.127-0.818-3.109-3.218-2.291-5.291 0.382-0.982 0.818-1.909 1.364-2.891l18-33.545C39.255 7.782 44.709 4.946 50 5c5.291-0.055 10.745 2.782 13.636 8.182l18 33.545c0.491 0.982 0.927 1.909 1.364 2.891 0.818 2.073-0.218 4.473-2.291 5.291-2.127 0.873-4.473-0.164-5.345-2.291C75.091 51.964 74.764 51.309 74.436 50.6z" fill="black"></path></g></g></svg></g></svg></g></svg></g><defs><mask></mask></defs></svg><rect width="395.52" height="63.79625145595788" fill="black" stroke="none" visibility="hidden"></rect></g></mask><linearGradient x1="0.054" x2="0.941" y1="0.5" y2="0.5" id="b521c4a5-d0ed-4afd-9f4a-9b4910c9eed2"><stop stop-color="#26282a" offset="0"></stop><stop stop-color="#9e9fa0" offset="0.498"></stop><stop stop-color="#26282a" offset="1"></stop></linearGradient><rect width="395.52" height="63.79625145595788" fill="url(#b521c4a5-d0ed-4afd-9f4a-9b4910c9eed2)" mask="url(#5b9b9dbc-c7e4-4b8c-aab9-5febd3363a50)" data-fill-palette-color="primary"></rect><mask id="0ecdcbda-0b93-4a49-a135-1062bbbaf241"><g id="SvgjsG4198"><svg viewBox="0 0 395.52 63.79625145595788" height="63.79625145595788" width="395.52"><g><svg viewBox="0 0 488.1161215485729 78.73174259208045" height="63.79625145595788" width="395.52"><g transform="matrix(1,0,0,1,92.59612154857291,10.000189335009427)"><svg viewBox="0 0 395.52 58.7313639220616" height="58.7313639220616" width="395.52"><g id="SvgjsG4197"><svg viewBox="0 0 395.52 58.7313639220616" height="58.7313639220616" width="395.52" id="SvgjsSvg4196"><g><svg viewBox="0 0 395.52 58.7313639220616" height="58.7313639220616" width="395.52"><g transform="matrix(1,0,0,1,0,0)"><svg width="395.52" viewBox="1.5 -36 318.18 47.25" height="58.7313639220616" data-palette-color="url(#b521c4a5-d0ed-4afd-9f4a-9b4910c9eed2)"></svg></g></svg></g></svg></g></svg></g><g><svg viewBox="0 0 78.73105607930829 78.73174259208045" height="78.73174259208045" width="78.73105607930829"><g><svg xmlns="http://www.w3.org/2000/svg" xmlns:xlink="http://www.w3.org/1999/xlink" version="1.1" x="0" y="0" viewBox="5 4.9992152251910404 90 90.00078477480896" enable-background="new 0 0 100 100" xml:space="preserve" height="78.73174259208045" width="78.73105607930829" class="icon-icon-0" data-fill-palette-color="accent" id="SvgjsSvg4195"><g fill="white"><g fill="white"><path d="M50 86.819c9.709 0 17.618-4.473 22.418-10.855 1.309-1.8 3.873-2.182 5.727-0.818 1.8 1.309 2.182 3.873 0.818 5.727C72.691 89.273 62.273 95 50 95c-12.327 0-22.691-5.727-28.909-14.127-1.364-1.855-0.982-4.418 0.818-5.727 1.8-1.364 4.364-0.982 5.727 0.818C32.436 82.4 40.236 86.819 50 86.819z" fill="white"></path><path d="M71.436 60.637h19.473c2.291 0 4.091 1.8 4.091 4.091 0 2.236-1.8 4.091-4.091 4.091H70.891c-3.764 0-6.818-2.836-7.473-6.327v-0.055L62.764 58.4l-1.255 6.655-1.8 9.818c-0.382 1.855-1.364 3.545-2.782 4.691-1.364 1.091-3.055 1.636-4.691 1.636s-3.327-0.545-4.691-1.636c-1.418-1.145-2.4-2.836-2.782-4.691l-1.8-9.818-2.4-12.982-1.855 10.364v0.055c-0.655 3.545-3.655 6.327-7.473 6.327H9.091C6.855 68.819 5 66.964 5 64.728c0-2.291 1.855-4.091 4.091-4.091h21.6l2.4-13.309v-0.055c0.327-1.855 1.364-3.6 2.727-4.691 1.418-1.091 3.109-1.636 4.745-1.636s3.327 0.545 4.691 1.636c1.418 1.091 2.4 2.836 2.727 4.691l3 16.255 1.255 6.6 1.2-6.545 1.855-10.036c0.327-1.909 1.364-3.6 2.727-4.691 1.418-1.145 3.055-1.636 4.745-1.636 1.636 0 3.327 0.491 4.691 1.636 1.418 1.091 2.4 2.782 2.727 4.691V53.6L71.436 60.637z" fill="white"></path><path d="M74.436 50.6l-18-33.545c-1.473-2.673-3.873-3.818-6.436-3.873-2.564 0.055-4.964 1.2-6.382 3.873l-18 33.545c-0.382 0.709-0.709 1.364-0.982 2.018v0.055c-0.818 2.073-3.218 3.109-5.291 2.236-2.127-0.818-3.109-3.218-2.291-5.291 0.382-0.982 0.818-1.909 1.364-2.891l18-33.545C39.255 7.782 44.709 4.946 50 5c5.291-0.055 10.745 2.782 13.636 8.182l18 33.545c0.491 0.982 0.927 1.909 1.364 2.891 0.818 2.073-0.218 4.473-2.291 5.291-2.127 0.873-4.473-0.164-5.345-2.291C75.091 51.964 74.764 51.309 74.436 50.6z" fill="white"></path></g></g></svg></g></svg></g></svg></g><defs><mask></mask></defs><mask><g id="SvgjsG4194"><svg viewBox="0 0 395.52 63.79625145595788" height="63.79625145595788" width="395.52"><g><svg viewBox="0 0 488.1161215485729 78.73174259208045" height="63.79625145595788" width="395.52"><g transform="matrix(1,0,0,1,92.59612154857291,10.000189335009427)"><svg viewBox="0 0 395.52 58.7313639220616" height="58.7313639220616" width="395.52"><g id="SvgjsG4193"><svg viewBox="0 0 395.52 58.7313639220616" height="58.7313639220616" width="395.52" id="SvgjsSvg4192"><g><svg viewBox="0 0 395.52 58.7313639220616" height="58.7313639220616" width="395.52"><g transform="matrix(1,0,0,1,0,0)"><svg width="395.52" viewBox="1.5 -36 318.18 47.25" height="58.7313639220616" data-palette-color="url(#b521c4a5-d0ed-4afd-9f4a-9b4910c9eed2)"><path d="M31.15 0.25L21.55 0.25Q12 0.25 6.75-4.33 1.5-8.9 1.5-17.9L1.5-17.9Q1.5-26.85 6.75-31.43 12-36 21.9-36L21.9-36 30.9-36Q40.8-36 46.05-31.43 51.3-26.85 51.3-17.9L51.3-17.9Q51.3-8.9 46.05-4.33 40.8 0.25 31.15 0.25L31.15 0.25ZM30.35-29.5L22.45-29.5Q16.9-29.5 13.8-27.5 10.7-25.5 9.9-21.15L9.9-21.15 42.9-21.15Q42.1-25.5 39-27.5 35.9-29.5 30.35-29.5L30.35-29.5ZM22.6-6.25L22.6-6.25 30.35-6.25Q35.95-6.25 39.03-8.25 42.1-10.25 42.9-14.65L42.9-14.65 9.9-14.65Q10.7-10.25 13.8-8.25 16.9-6.25 22.6-6.25ZM62.8 11.25L55.55 11.25 55.55-25.75 74.05-25.75Q80.75-25.75 84.5-22.45 88.25-19.15 88.25-12.9L88.25-12.9Q88.25-6.6 84.5-3.3 80.75 0 74.05 0L74.05 0 62.8 0 62.8 11.25ZM74.05-20L74.05-20 62.8-20 62.8-5.75 74.05-5.75Q77.3-5.75 79.02-7.53 80.75-9.3 80.75-12.9L80.75-12.9Q80.75-16.45 79.02-18.23 77.3-20 74.05-20ZM118.05 0L107.15 0Q102.8 0 100.75-2.18 98.7-4.35 98.7-7.9L98.7-7.9 98.7-20 91.25-20 91.25-25.75 98.7-25.75 98.7-33.65 105.95-33.65 105.95-25.75 116.65-25.75 116.65-20 105.95-20 105.95-8.8Q105.95-5.75 108.95-5.75L108.95-5.75 118.05-5.75 118.05 0ZM129.04 0L121.79 0 121.79-25.75 129.04-25.75 129.04 0ZM129.09-30L121.74-30 121.74-35.65 129.09-35.65 129.09-30ZM149.09-11.7L133.79-11.7 133.79-17.45 149.09-17.45 149.09-11.7ZM193.94 0.25L171.99 0.25Q162.84 0.25 157.71-4.33 152.59-8.9 152.59-17.9L152.59-17.9Q152.59-26.85 157.81-31.43 163.04-36 172.99-36L172.99-36 191.99-36 191.99-29.5 173.54-29.5Q166.99-29.5 163.86-26.75 160.74-24 160.74-17.9L160.74-17.9Q160.74-12.1 163.49-9.33 166.24-6.55 171.54-6.3L171.54-6.3 171.54-20.2 193.94-20.2 193.94 0.25ZM179.04-13.7L179.04-6.25 185.94-6.25 185.94-13.7 179.04-13.7ZM207.44 0L200.19 0 200.19-35.75 207.44-35.75 207.44 0ZM235.13 0L221.13 0Q216.73 0 214.71-2.2 212.68-4.4 212.68-7.9L212.68-7.9 212.68-25.75 219.93-25.75 219.93-8.75Q219.93-5.75 222.93-5.75L222.93-5.75 233.33-5.75Q236.33-5.75 236.33-8.75L236.33-8.75 236.33-25.75 243.58-25.75 243.58-7.9Q243.58-4.4 241.56-2.2 239.53 0 235.13 0L235.13 0ZM279.28 0.25L262.03 0.25Q255.33 0.25 251.58-3.08 247.83-6.4 247.83-12.85L247.83-12.85Q247.83-19.35 251.58-22.68 255.33-26 262.03-26L262.03-26 278.78-26 278.78-20.25 262.03-20.25Q258.78-20.25 257.06-18.45 255.33-16.65 255.33-12.85L255.33-12.85Q255.33-9.1 257.06-7.3 258.78-5.5 262.03-5.5L262.03-5.5 279.28-5.5 279.28 0.25ZM305.48 0.25L296.23 0.25Q289.53 0.25 285.78-3.08 282.03-6.4 282.03-12.85L282.03-12.85Q282.03-19.35 285.78-22.68 289.53-26 296.23-26L296.23-26 305.48-26Q312.18-26 315.93-22.68 319.68-19.35 319.68-12.85L319.68-12.85Q319.68-6.4 315.93-3.08 312.18 0.25 305.48 0.25L305.48 0.25ZM296.23-5.5L296.23-5.5 305.48-5.5Q308.73-5.5 310.45-7.3 312.18-9.1 312.18-12.85L312.18-12.85Q312.18-16.65 310.45-18.45 308.73-20.25 305.48-20.25L305.48-20.25 296.23-20.25Q292.98-20.25 291.25-18.45 289.53-16.65 289.53-12.85L289.53-12.85Q289.53-9.1 291.25-7.3 292.98-5.5 296.23-5.5Z" opacity="1" transform="matrix(1,0,0,1,0,0)" fill="black" class="wordmark-text-0" id="SvgjsPath4191"></path></svg></g></svg></g></svg></g></svg></g><g><svg viewBox="0 0 78.73105607930829 78.73174259208045" height="78.73174259208045" width="78.73105607930829"><g><svg xmlns="http://www.w3.org/2000/svg" xmlns:xlink="http://www.w3.org/1999/xlink" version="1.1" x="0" y="0" viewBox="5 4.9992152251910404 90 90.00078477480896" enable-background="new 0 0 100 100" xml:space="preserve" height="78.73174259208045" width="78.73105607930829" class="icon-icon-0" data-fill-palette-color="accent" id="SvgjsSvg4190"><g fill="black"><g fill="black"><path d="M50 86.819c9.709 0 17.618-4.473 22.418-10.855 1.309-1.8 3.873-2.182 5.727-0.818 1.8 1.309 2.182 3.873 0.818 5.727C72.691 89.273 62.273 95 50 95c-12.327 0-22.691-5.727-28.909-14.127-1.364-1.855-0.982-4.418 0.818-5.727 1.8-1.364 4.364-0.982 5.727 0.818C32.436 82.4 40.236 86.819 50 86.819z" fill="black"></path><path d="M71.436 60.637h19.473c2.291 0 4.091 1.8 4.091 4.091 0 2.236-1.8 4.091-4.091 4.091H70.891c-3.764 0-6.818-2.836-7.473-6.327v-0.055L62.764 58.4l-1.255 6.655-1.8 9.818c-0.382 1.855-1.364 3.545-2.782 4.691-1.364 1.091-3.055 1.636-4.691 1.636s-3.327-0.545-4.691-1.636c-1.418-1.145-2.4-2.836-2.782-4.691l-1.8-9.818-2.4-12.982-1.855 10.364v0.055c-0.655 3.545-3.655 6.327-7.473 6.327H9.091C6.855 68.819 5 66.964 5 64.728c0-2.291 1.855-4.091 4.091-4.091h21.6l2.4-13.309v-0.055c0.327-1.855 1.364-3.6 2.727-4.691 1.418-1.091 3.109-1.636 4.745-1.636s3.327 0.545 4.691 1.636c1.418 1.091 2.4 2.836 2.727 4.691l3 16.255 1.255 6.6 1.2-6.545 1.855-10.036c0.327-1.909 1.364-3.6 2.727-4.691 1.418-1.145 3.055-1.636 4.745-1.636 1.636 0 3.327 0.491 4.691 1.636 1.418 1.091 2.4 2.782 2.727 4.691V53.6L71.436 60.637z" fill="black"></path><path d="M74.436 50.6l-18-33.545c-1.473-2.673-3.873-3.818-6.436-3.873-2.564 0.055-4.964 1.2-6.382 3.873l-18 33.545c-0.382 0.709-0.709 1.364-0.982 2.018v0.055c-0.818 2.073-3.218 3.109-5.291 2.236-2.127-0.818-3.109-3.218-2.291-5.291 0.382-0.982 0.818-1.909 1.364-2.891l18-33.545C39.255 7.782 44.709 4.946 50 5c5.291-0.055 10.745 2.782 13.636 8.182l18 33.545c0.491 0.982 0.927 1.909 1.364 2.891 0.818 2.073-0.218 4.473-2.291 5.291-2.127 0.873-4.473-0.164-5.345-2.291C75.091 51.964 74.764 51.309 74.436 50.6z" fill="black"></path></g></g></svg></g></svg></g></svg></g><defs><mask></mask></defs></svg><rect width="395.52" height="63.79625145595788" fill="black" stroke="none" visibility="hidden"></rect></g></mask></svg><rect width="395.52" height="63.79625145595788" fill="black" stroke="none" visibility="hidden"></rect></g></mask><linearGradient x1="0.054" x2="0.941" y1="0.5" y2="0.5" id="1a4ca642-af73-4f86-ab6a-58548e31abd4"><stop stop-color="#26282a" offset="0"></stop><stop stop-color="#9e9fa0" offset="0.498"></stop><stop stop-color="#26282a" offset="1"></stop></linearGradient><rect width="395.52" height="63.79625145595788" fill="url(#1a4ca642-af73-4f86-ab6a-58548e31abd4)" mask="url(#0ecdcbda-0b93-4a49-a135-1062bbbaf241)" data-fill-palette-color="accent"></rect></svg><rect width="395.52" height="63.79625145595788" fill="none" stroke="none" visibility="hidden"></rect></g></svg></g></svg>